<?xml version="1.0" encoding="utf-8"?>
<!-- Generator: Adobe Illustrator 24.2.3, SVG Export Plug-In . SVG Version: 6.00 Build 0)  -->
<svg version="1.1" id="Logo" xmlns="http://www.w3.org/2000/svg" xmlns:xlink="http://www.w3.org/1999/xlink" x="0px" y="0px"
	 viewBox="0 0 354 371" style="enable-background:new 0 0 354 371;" xml:space="preserve">
<style type="text/css">
	.st0{display:none;}
	.st1{fill-rule:evenodd;clip-rule:evenodd;fill:#FFFFFF;}
	.st2{fill:none;stroke:#D8D9D9;stroke-width:0.216;stroke-miterlimit:22.9256;}
	.st3{fill-rule:evenodd;clip-rule:evenodd;fill:#5C9EAD;}
</style>
<rect class="st0" width="354" height="371"/>
<g>
	<path class="st1" d="M223.68,222.86c-10.78-1.53-21.96,0.34-32.25,3.6c-13.87,4.4-27.35,11.63-39.44,19.66
		c-4.23,2.81-8.38,5.77-12.39,8.89c-0.17,0.13-0.34,0.27-0.52,0.4l34.08,19.93c7.85-6.82,15.73-13.61,23.63-20.36
		c4.94-4.22,9.89-8.43,14.88-12.58c1.97-1.64,3.94-3.27,5.93-4.87c1.36-1.1,2.74-2.21,4.16-3.24c2.63-1.91,3.26-4.6,2.86-7.7
		C224.47,225.47,224.13,224.09,223.68,222.86z M220.04,40c0.05-0.01,0.11-0.02,0.16-0.04c4.23-0.95,8.63-1.15,12.92-0.5
		c15.42,2.32,25.04,14.62,30.72,28.26c4.7,11.29,7.09,23.74,4.79,35.89c-1.9,10.07-6.89,19.05-14.68,25.74
		c-6.25,5.37-13.8,8.84-21.83,10.36l8.53,53.78l45.56-33.07l35.17,31.65l-0.93,2.41c-0.58,1.5-1.23,3.01-1.89,4.48
		c-1.63,3.66-3.42,7.27-5.32,10.81c-5.51,10.24-12.29,20.37-20.42,28.7c-9.83,10.07-22.11,17.86-36.47,18.09l-46.65,40.57
		c0.23,0.05,0.46,0.1,0.68,0.16c5.89,1.35,11.78,2.99,17.46,5.06c8.79,3.21,23.65,9.8,23.11,21.14c-0.32,6.66-2.31,14.17-5.13,20.19
		c-2.72,5.82-6.74,11.43-12.43,14.66c-5.68,3.24-11.9,3.48-18.08,1.58c-8.54-2.63-16.46-9.14-22.68-15.36l-0.09-0.09l-11.96-13.76
		l-9.76,18.92c-1.37,3.53-4.59,6.86-7.82,8.67c-3.54,1.98-7.53,2.65-11.56,2.39c-5.85-0.38-11.69-2.68-16.81-5.4
		c-1.75-0.93-3.6-2.24-5.15-3.45c-3.36-2.62-6.47-5.81-8.65-9.49c-2.84-4.78-3.89-10.09-2.56-15.55
		c1.82-7.44,7.62-13.51,13.49-18.07l9.68-7.54l-29.7-18.32c-0.49,0.31-0.98,0.6-1.45,0.87c-3.03,1.72-6.35,2.98-9.75,3.75
		c-11.98,2.75-23.86-0.55-34.26-6.67c-15.36-9.04-33.28-25.05-33.68-44.32c-0.2-9.43,3.97-17.6,10.41-24.28
		c1.49-1.54,3.55-3.07,5.32-4.23c4.33-2.85,9.19-4.93,14.24-6.09c7.32-1.69,14.77-1.42,22.02,0.45c6.69,1.72,12.99,4.72,18.82,8.45
		L84.7,145.55c-1.51-0.18-3.04-0.45-4.43-0.74c-5.2-1.11-10.3-3.06-14.78-5.95c-15.8-10.19-18.55-27.94-15.73-45.35
		c0.15-1.81,0.62-3.83,1.1-5.56c1.21-4.28,3.12-8.4,5.63-12.08c8.38-12.3,21.81-17.95,36.13-19.52c0.46-1.1,0.97-2.2,1.48-3.2
		c2.02-4.02,4.63-7.82,7.75-11.07c4.17-4.34,9.17-7.59,14.94-9.36c6.61-2.03,13.46-1.89,20.11-0.41c0.57-0.88,1.18-1.73,1.77-2.51
		c2.84-3.78,6.26-7.18,10.04-10.01c12.95-9.68,28.59-11.66,44.2-8.54c1.55,0.31,3.24,0.86,4.71,1.41c3.41,1.25,6.71,2.94,9.67,5.04
		C215.16,23.25,219.47,30.91,220.04,40z"/>
	<path class="st2" d="M223.68,222.86c-10.78-1.53-21.96,0.34-32.25,3.6c-13.87,4.4-27.35,11.63-39.44,19.66
		c-4.23,2.81-8.38,5.77-12.39,8.89c-0.17,0.13-0.34,0.27-0.52,0.4l34.08,19.93c7.85-6.82,15.73-13.61,23.63-20.36
		c4.94-4.22,9.89-8.43,14.88-12.58c1.97-1.64,3.94-3.27,5.93-4.87c1.36-1.1,2.74-2.21,4.16-3.24c2.63-1.91,3.26-4.6,2.86-7.7
		C224.47,225.47,224.13,224.09,223.68,222.86z M220.04,40c0.05-0.01,0.11-0.02,0.16-0.04c4.23-0.95,8.63-1.15,12.92-0.5
		c15.42,2.32,25.04,14.62,30.72,28.26c4.7,11.29,7.09,23.74,4.79,35.89c-1.9,10.07-6.89,19.05-14.68,25.74
		c-6.25,5.37-13.8,8.84-21.83,10.36l8.53,53.78l45.56-33.07l35.17,31.65l-0.93,2.41c-0.58,1.5-1.23,3.01-1.89,4.48
		c-1.63,3.66-3.42,7.27-5.32,10.81c-5.51,10.24-12.29,20.37-20.42,28.7c-9.83,10.07-22.11,17.86-36.47,18.09l-46.65,40.57
		c0.23,0.05,0.46,0.1,0.68,0.16c5.89,1.35,11.78,2.99,17.46,5.06c8.79,3.21,23.65,9.8,23.11,21.14c-0.32,6.66-2.31,14.17-5.13,20.19
		c-2.72,5.82-6.74,11.43-12.43,14.66c-5.68,3.24-11.9,3.48-18.08,1.58c-8.54-2.63-16.46-9.14-22.68-15.36l-0.09-0.09l-11.96-13.76
		l-9.76,18.92c-1.37,3.53-4.59,6.86-7.82,8.67c-3.54,1.98-7.53,2.65-11.56,2.39c-5.85-0.38-11.69-2.68-16.81-5.4
		c-1.75-0.93-3.6-2.24-5.15-3.45c-3.36-2.62-6.47-5.81-8.65-9.49c-2.84-4.78-3.89-10.09-2.56-15.55
		c1.82-7.44,7.62-13.51,13.49-18.07l9.68-7.54l-29.7-18.32c-0.49,0.31-0.98,0.6-1.45,0.87c-3.03,1.72-6.35,2.98-9.75,3.75
		c-11.98,2.75-23.86-0.55-34.26-6.67c-15.36-9.04-33.28-25.05-33.68-44.32c-0.2-9.43,3.97-17.6,10.41-24.28
		c1.49-1.54,3.55-3.07,5.32-4.23c4.33-2.85,9.19-4.93,14.24-6.09c7.32-1.69,14.77-1.42,22.02,0.45c6.69,1.72,12.99,4.72,18.82,8.45
		L84.7,145.55c-1.51-0.18-3.04-0.45-4.43-0.74c-5.2-1.11-10.3-3.06-14.78-5.95c-15.8-10.19-18.55-27.94-15.73-45.35
		c0.15-1.81,0.62-3.83,1.1-5.56c1.21-4.28,3.12-8.4,5.63-12.08c8.38-12.3,21.81-17.95,36.13-19.52c0.46-1.1,0.97-2.2,1.48-3.2
		c2.02-4.02,4.63-7.82,7.75-11.07c4.17-4.34,9.17-7.59,14.94-9.36c6.61-2.03,13.46-1.89,20.11-0.41c0.57-0.88,1.18-1.73,1.77-2.51
		c2.84-3.78,6.26-7.18,10.04-10.01c12.95-9.68,28.59-11.66,44.2-8.54c1.55,0.31,3.24,0.86,4.71,1.41c3.41,1.25,6.71,2.94,9.67,5.04
		C215.16,23.25,219.47,30.91,220.04,40z"/>
	<path class="st3" d="M250.61,77.8c-15.15-39.01-40.97-17.4-40.97-17.4c-2.79-42.09-39.28-41.54-59.49-19.65
		c-1.97,2.25-3.93,4.77-5.6,7.58h-0.57c0,0,0,0,0,0.29c-6.74-3.65-14.6-3.94-23.02-0.85c-6.45,2.53-10.66,6.74-13.47,11.79
		c-1.68,3.09-3.08,6.45-3.64,9.83h-0.29v0.27c-14.3-8.14-39.29,10.38-40.4,27.5v2.24c0,0.29,0,0.29,0,0.57
		c-0.57,33.68,32.27,33.96,32.27,33.96l12.06,38.45l22.18,70.71c5.89-5.33,12.91-10.66,20.48-15.71
		c25.82-16.27,58.94-28.34,80.81-19.93l-15.15-78.58c29.46-2.52,36.77-19.65,37.61-33.4V91C253.15,84.82,251.73,79.77,250.61,77.8
		 M142.85,53.67c2.25-2.24,4.78-1.96,7.3,0c0.56,0.28,1.13,0.84,1.69,1.4c8.98,10.38,13.47,28.62,10.94,52.2
		c0,0-4.49,12.91-12.63,4.77c-1.13-1.4-2.52-3.37-3.93-5.89c-10.67-18.81-10.95-35.93-5.61-49.68
		C141.17,55.63,142.01,54.8,142.85,53.67z M104.12,71.63c0,0,1.4-0.27,3.37,1.97c1.13,1.12,2.25,2.81,3.37,5.61l0.28-0.28
		c1.68,5.05,1.68,11.79-1.68,15.71c-0.56,0.84-1.4,1.12-1.97,0.84c-2.52-0.56-4.76-7.86-4.76-16.83
		C102.72,78.65,103.28,71.63,104.12,71.63z M247.81,97.17c-3.09,12.06-11.79,24.13-33.4,27.51h-7.01l15.43,75.21
		c-32.56-3.93-54.73,4.21-72.69,18.24c-6.74,5.33-12.91,11.51-18.8,18.25l-23.86-86.16l-5.33-19.65c0,0-30.03,0-33.96-24.12
		c-3.09-19.65,13.47-36.77,33.13-34.53c0,0-6.18,24.42,6.16,26.67c0.85,0,1.41,0,2.25,0c8.99-4.78,7.02-16.28,2.82-23.85h-0.29
		c-0.28-0.84-0.84-1.4-1.12-1.97c-1.13-1.68-2.53-3.09-3.66-3.64c-0.28-0.28-0.56-0.28-0.83-0.28c0,0,0.28-1.4,0.83-3.09
		c2.25-6.45,10.11-21.05,31.71-14.03c0,0-15.71,40.97,7.02,61.74c0,0,1.68,1.68,3.93,3.37c5.61,3.37,15.15,6.17,19.65-12.35
		c0,0,8.41-33.12-18.25-55.85c0,0,14.87-20.76,34.25-14.88c19.64,5.61,20.2,37.61,20.2,37.61
		C222.27,39.92,255.39,67.15,247.81,97.17z M305.23,194.31l-0.24-0.26l-37.03,35.61c-0.61,0.59-1.7,0.65-2.44-0.11l-1.23-1.27
		c-0.74-0.77-0.63-1.86-0.02-2.45l37.02-35.62l-1.97-2.04l-37.02,35.62c-0.61,0.59-1.71,0.65-2.44-0.11l-1.23-1.28
		c-0.5-0.51-0.63-1.86-0.02-2.44l37.02-35.62l-1.97-2.05l-37.03,35.61c-0.61,0.59-1.7,0.66-2.44-0.1l-0.99-1.02
		c-0.74-0.77-0.88-2.11-0.26-2.7l37.02-35.62l-1.98-2.05c0,0-43.99,34.45-44.77,36.68c-1.33,2.26-7.46,6.19-3.81,15.47
		c0,0,1.21,6.72-2.74,10.52c0,0-31.12,29.94-62.3,55.55c-17.77-9.62-52.6-29.27-54.76-31.59c-5.72-3.11-3.75-10.2-4.75-16.36
		c-1.19-25.99-52.57-43.37-62.84-21.23c-14.94,20.43,25.12,61.65,48.02,46.9c5.77-3.17,11.17-4.98,15.69-2.21
		c0,0,23.47,14.43,49.19,32.12c-1.02,0.81-2.04,1.61-3.05,2.39c0,0-11.32,6.46-18.02,10.43c-6.99,4.28-17.63,12.05-4.78,24.82
		c12.6,12.5,20.72,0.26,26.03-8.8c3.15-5.37,8.37-12.22,13.92-18.95c5.54,3.97,11,7.99,16.18,11.96c0,0,8.46,8.76,13.81,14.02
		c5.69,5.48,15.75,13.22,24.02-1.03c8.47-14.55-4.74-19.5-14.45-22.32c-7.94-2.2-20.23-7.93-30.66-13.11
		c0.8-0.92,1.59-1.82,2.36-2.69c8.67-9.82,49.43-52.48,52.59-54.04c0,0,3.7-4.05,10.81-1.54c7.35,2.79,12.09-0.79,16.33-4.88
		c4.56-4.38,36.92-42.42,36.92-42.42L305.23,194.31z"/>
</g>
</svg>
