<?xml version="1.0" encoding="iso-8859-1"?>
<!-- Generator: Adobe Illustrator 19.0.0, SVG Export Plug-In . SVG Version: 6.00 Build 0)  -->
<svg version="1.1" id="Capa_1" xmlns="http://www.w3.org/2000/svg" xmlns:xlink="http://www.w3.org/1999/xlink" x="0px" y="0px"
	 viewBox="0 0 436.5 436.5" style="enable-background:new 0 0 436.5 436.5;" xml:space="preserve">
<g>
	<g>
		<path d="M272.7,31.2C258.3,11.1,239,0,218.2,0s-40.1,11.1-54.4,31.1c-13.6,19.1-21,44.2-21,70.9c0,22.3,5.2,43.5,15,61.2
			c8.4,15.2,20,27,33.1,33.9L181.5,398c0,0.1,0,0.2,0,0.4v0.2c0,0.4,0,0.8,0,1.2c0.1,20.3,16.6,36.8,36.9,36.7
			c10,0,19.6-4.1,26.5-11.4c7-7.2,10.6-17,10.1-27.1l-9.4-200.9c13.1-6.8,24.6-18.6,33.1-33.8c9.8-17.7,15-38.9,15-61.2
			C293.7,75.5,286.2,50.3,272.7,31.2z M230.4,411.3c-6.4,6.7-17.1,7-23.8,0.5c-3.3-3.1-5.1-7.4-5.2-12v-0.2c0-0.3,0-0.6,0-0.9
			l9.1-195.3c5.1,0.7,10.2,0.7,15.3,0l9.1,195.5C235.2,403.6,233.5,408.1,230.4,411.3z M231.7,181.5c-8.7,3.3-18.3,3.3-27,0
			c-24.7-9.4-41.9-42-41.9-79.5c0-22.5,6.2-43.6,17.3-59.3C190.5,28,204.1,20,218.2,20c14.1,0,27.7,8.1,38.1,22.7
			c11.2,15.7,17.3,36.7,17.3,59.3C273.6,139.5,256.4,172.1,231.7,181.5z"/>
	</g>
</g>
<g>
</g>
<g>
</g>
<g>
</g>
<g>
</g>
<g>
</g>
<g>
</g>
<g>
</g>
<g>
</g>
<g>
</g>
<g>
</g>
<g>
</g>
<g>
</g>
<g>
</g>
<g>
</g>
<g>
</g>
</svg>
